Coordinates
version=1
nRows=5
nColumns=107
inDegrees=yes

Units are S.I. units (second, meters, Newtons, ...)
If the header above contains a line with 'inDegrees', this indicates whether rotational values are in degrees (yes) or radians (no).

endheader
time	sternoclavicular_r2	sternoclavicular_r3	unrotscap_r3	unrotscap_r2	acromioclavicular_r2	acromioclavicular_r3	acromioclavicular_r1	unrothum_r1	unrothum_r3	unrothum_r2	elv_angle	shoulder_elv	shoulder1_r2	shoulder_rot	elbow_flexion	pro_sup	deviation	flexion	proximal_distal_r1	proximal_distal_r3	cmc_flexion	cmc_abduction	mp_flexion	ip_flexion	mcp2_flexion	mcp2_abduction	pm2_flexion	md2_flexion	mcp3_flexion	mcp3_abduction	pm3_flexion	md3_flexion	mcp4_flexion	mcp4_abduction	pm4_flexion	md4_flexion	mcp5_flexion	mcp5_abduction	pm5_flexion	md5_flexion	bicpt_tx	bicpt_ty	bicpt_tz	bicpt2_tx	bicpt2_ty	bicpt2_tz	ptpt_tx	ptpt_ty	ptpt_tz	FCUpt_tx	FCUpt_ty	FCUpt_tz	EDCpt_tx	EDCpt_ty	EDCpt_tz	APLpt_tx	APLpt_ty	APLpt_tz	FPLpt_tx	FPLpt_ty	FPLpt_tz	FPLpt2_tx	FPLpt2_ty	FPLpt2_tz	PEC1pt2_tx	PEC1pt2_ty	PEC1pt2_tz	PEC1pt3_tx	PEC1pt3_ty	PEC1pt3_tz	PEC2pt2_tx	PEC2pt2_ty	PEC2pt2_tz	PEC2pt3_tx	PEC2pt3_ty	PEC2pt3_tz	PEC3pt2_tx	PEC3pt2_ty	PEC3pt2_tz	PEC3pt3_tx	PEC3pt3_ty	PEC3pt3_tz	DELT2pt2a_tx	DELT2pt2a_ty	DELT2pt2a_tz	DELT2pt2_tx	DELT2pt2_ty	DELT2pt2_tz	LAT1pt2_tx	LAT1pt2_ty	LAT1pt2_tz	LAT1pt3_tx	LAT1pt3_ty	LAT1pt3_tz	LAT2pt2_tx	LAT2pt2_ty	LAT2pt2_tz	LAT2pt3_tx	LAT2pt3_ty	LAT2pt3_tz	LAT3pt2_tx	LAT3pt2_ty	LAT3pt2_tz	LAT3pt3_tx	LAT3pt3_ty	LAT3pt3_tz
      0.86666667	     -0.31511813	      0.13346917	     -0.13346917	      0.31511813	     -0.06380501	      0.51564967	      0.23178098	     -0.23178098	     -0.51564967	      0.06380501	    101.72285305	     74.60701939	     -1.77539871	    -36.45802802	     30.25778900	     83.00761596	      0.34123643	     -0.57407875	      0.36779774	     -0.28703938	     29.59099698	    -23.00896818	     -5.49626231	    -12.84216177	     76.07022661	     12.08406231	     69.37426832	     59.32982888	     76.56610046	      2.72031187	     74.23897521	     46.31770905	     71.70598538	    -12.42721293	     79.72858840	     41.81270854	     73.43001701	    -14.06031460	     76.55899507	      5.55389666	      0.00090083	     -0.03106801	     -0.00485860	      0.01453899	     -0.01841968	     -0.00158221	      0.00141667	     -0.06886591	     -0.00673671	      0.01239563	     -0.18233780	      0.00000475	     -0.00996089	      0.00341518	     -0.00066356	      0.00031137	      0.00012455	      0.00062274	      0.00039855	      0.00119566	      0.00067256	     -0.00000797	     -0.00025332	     -0.00030398	      0.00244545	      0.00857981	      0.00596857	     -0.00799954	      0.01931494	     -0.01832018	      0.00244545	      0.00857981	      0.00596857	      0.00053883	      0.01790570	     -0.00940878	      0.00388844	      0.00477113	      0.01582036	      0.00000000	      0.00744196	      0.00000000	     -0.00700478	     -0.03237118	     -0.00613427	      0.02146202	     -0.00098298	     -0.01088051	     -0.00087042	      0.01458983	     -0.00596857	      0.00240401	      0.02105578	     -0.01740832	     -0.00584422	      0.01264176	     -0.00534684	     -0.01218582	      0.02669276	     -0.02988428	     -0.02287951	      0.01413390	     -0.00717057	     -0.01517011	      0.03083759	     -0.03734499
      0.90000000	     -0.31547061	      0.13361846	     -0.13361846	      0.31547061	     -0.06387638	      0.51622645	      0.23204024	     -0.23204024	     -0.51622645	      0.06387638	    101.74798039	     74.69047217	     -1.77583727	    -36.17363121	     29.95225459	     82.45589476	      0.33194427	     -0.56568158	      0.36030653	     -0.28284079	     30.11146799	    -23.03094825	     -6.13821485	    -13.10624670	     68.74434820	     11.99772765	     64.23824357	     57.64354371	     69.87634018	      3.00301697	     69.12715877	     44.71295694	     64.79160380	    -12.07264689	     74.81127756	     40.64562339	     65.65532609	    -14.09249143	     71.89983231	      5.42446700	      0.00089073	     -0.03103299	     -0.00485296	      0.01459190	     -0.01833668	     -0.00167416	      0.00145744	     -0.06883955	     -0.00669226	      0.01233280	     -0.18235597	     -0.00000909	     -0.00989468	      0.00338546	     -0.00064682	      0.00031080	      0.00012432	      0.00062160	      0.00039783	      0.00119348	      0.00067133	     -0.00000870	     -0.00024907	     -0.00029888	      0.00244819	      0.00858941	      0.00597524	     -0.00800849	      0.01933655	     -0.01834068	      0.00244819	      0.00858941	      0.00597524	      0.00053943	      0.01792573	     -0.00941931	      0.00389165	      0.00477646	      0.01582839	      0.00000000	      0.00745872	      0.00000000	     -0.00701261	     -0.03240739	     -0.00614820	      0.02135993	     -0.00097283	     -0.01072228	     -0.00087139	      0.01460615	     -0.00597524	      0.00240670	      0.02107933	     -0.01742779	     -0.00585076	      0.01265590	     -0.00535282	     -0.01219945	      0.02672261	     -0.02991771	     -0.02290510	      0.01414971	     -0.00717859	     -0.01518708	      0.03087209	     -0.03738676
      0.93333333	     -0.31318340	      0.13264971	     -0.13264971	      0.31318340	     -0.06341327	      0.51248373	      0.23035791	     -0.23035791	     -0.51248373	      0.06341327	    102.08613985	     74.14895464	     -1.78173926	    -38.12154732	     30.89322186	     85.11334754	      0.34578551	     -0.41927425	      0.37141287	     -0.20963713	     29.22803974	    -22.94518228	     -4.41283664	    -10.69989757	     59.59973844	     11.54408797	     56.54019643	     51.58586577	     60.84290388	      3.25496220	     61.42372179	     40.99146885	     55.13157363	    -11.26052097	     67.48104051	     38.75798628	     55.41614584	    -14.06010945	     61.89978171	      5.54483853	      0.00092185	     -0.03114084	     -0.00487034	      0.01433066	     -0.01859230	     -0.00122733	      0.00126108	     -0.06896652	     -0.00690634	      0.01263627	     -0.18226765	      0.00005967	     -0.01021358	      0.00352948	     -0.00072896	      0.00028177	      0.00011271	      0.00056354	      0.00036067	      0.00108200	      0.00060863	     -0.00000744	     -0.00025610	     -0.00030733	      0.00243044	      0.00852714	      0.00593192	     -0.00795042	      0.01919636	     -0.01820770	      0.00243044	      0.00852714	      0.00593192	      0.00053552	      0.01779576	     -0.00935101	      0.00387080	      0.00474183	      0.01577599	      0.00000000	      0.00735027	      0.00000000	     -0.00696177	     -0.03217243	     -0.00605812	      0.02203718	     -0.00104274	     -0.01182185	     -0.00086507	      0.01450025	     -0.00593192	      0.00238925	      0.02092650	     -0.01730144	     -0.00580834	      0.01256414	     -0.00531401	     -0.01211101	      0.02652887	     -0.02970080	     -0.02273903	      0.01404712	     -0.00712654	     -0.01507697	      0.03064826	     -0.03711570
      0.96666667	     -0.31219216	      0.13222986	     -0.13222986	      0.31219216	     -0.06321256	      0.51086169	      0.22962881	     -0.22962881	     -0.51086169	      0.06321256	    102.15962320	     73.91426876	     -1.78302179	    -38.48298818	     31.33679705	     85.13601782	      0.35347933	     -0.29713470	      0.37745070	     -0.14856735	     28.91961233	    -22.92421030	     -4.16779427	     -8.13647304	     48.28479020	     10.38317241	     50.97951242	     35.33337674	     50.22478972	      2.83670813	     51.62105203	     33.52901265	     43.62942832	    -10.22673627	     57.69359056	     34.43113595	     42.60918842	    -13.97036357	     50.45475528	      5.43775803	      0.00093652	     -0.03119168	     -0.00487852	      0.01432836	     -0.01871279	     -0.00122347	      0.00125941	     -0.06896760	     -0.00690816	      0.01263887	     -0.18226689	      0.00006028	     -0.01021630	      0.00353072	     -0.00072968	      0.00023008	      0.00009203	      0.00046016	      0.00029450	      0.00088350	      0.00049697	     -0.00000697	     -0.00025836	     -0.00031003	      0.00242275	      0.00850015	      0.00591315	     -0.00792526	      0.01913560	     -0.01815007	      0.00242275	      0.00850015	      0.00591315	      0.00053383	      0.01773944	     -0.00932142	      0.00386173	      0.00472682	      0.01575306	      0.00000000	      0.00730352	      0.00000000	     -0.00693973	     -0.03207061	     -0.00601928	      0.02215725	     -0.00105579	     -0.01202981	     -0.00086233	      0.01445436	     -0.00591315	      0.00238168	      0.02086027	     -0.01724668	     -0.00578996	      0.01252437	     -0.00529719	     -0.01207267	      0.02644491	     -0.02960680	     -0.02266706	      0.01400266	     -0.00710399	     -0.01502925	      0.03055126	     -0.03699823
      1.00000000	     -0.31122070	      0.13181840	     -0.13181840	      0.31122070	     -0.06301586	      0.50927202	      0.22891427	     -0.22891427	     -0.50927202	      0.06301586	    102.47821569	     73.68426689	     -1.78858228	    -39.36598976	     31.33788515	     84.15419412	      0.33528965	     -0.25239447	      0.36301962	     -0.12619723	     27.97472344	    -22.72992905	     -2.76485900	     -6.67412146	     38.15866303	      7.92818463	     40.34970166	     24.92562057	     39.76969807	      1.25293639	     38.78953299	     26.38598382	     31.81472589	     -9.02459061	     45.04200370	     28.77100516	     28.89315844	    -13.74119486	     37.07062305	      5.26952753	      0.00093656	     -0.03119180	     -0.00487855	      0.01442681	     -0.01871309	     -0.00138975	      0.00133195	     -0.06892069	     -0.00682907	      0.01252649	     -0.18229976	      0.00003424	     -0.01009848	      0.00347725	     -0.00069887	      0.00020490	      0.00008196	      0.00040980	      0.00026227	      0.00078681	      0.00044258	     -0.00000544	     -0.00026461	     -0.00031753	      0.00241521	      0.00847370	      0.00589475	     -0.00790060	      0.01907605	     -0.01809360	      0.00241521	      0.00847370	      0.00589475	      0.00053216	      0.01768424	     -0.00929241	      0.00385283	      0.00471212	      0.01573046	      0.00000000	      0.00725786	      0.00000000	     -0.00691814	     -0.03197081	     -0.00598134	      0.02244329	     -0.00108779	     -0.01254277	     -0.00085965	      0.01440938	     -0.00589475	      0.00237427	      0.02079536	     -0.01719301	     -0.00577194	      0.01248540	     -0.00528071	     -0.01203511	      0.02636262	     -0.02951467	     -0.02259653	      0.01395909	     -0.00708188	     -0.01498248	      0.03045619	     -0.03688310
